#!OML:ASF E:\motion texture\Top Level 1\Subject 1\Session 1\male.ASF
:FULLY-SPECIFIED
:DEGREES
427
root -2.38647 17.9573 4.11827 82.7167 -80.8964 -73.8654
lowerback -1.62579 1.59417 6.54066
upperback -1.87789 1.98574 3.73822
thorax -0.932705 0.893233 0.205981
lowerneck -16.5287 -4.19515 -7.1839
upperneck 10.0582 -5.4181 9.55729
head 6.22105 -2.17782 3.67798
rclavicle 1.55052e-014 4.29375e-014
rhumerus -26.9579 22.7902 -102.86
rradius 44.0735
rwrist -46.9817
rhand 3.19184 -47.5806
rfingers 7.12502
rthumb 28.6439 -75.405
lclavicle 1.55052e-014 4.29375e-014
lhumerus -26.5379 -38.1698 115.771
lradius 42.7165
lwrist 3.11703
lhand -22.9063 44.3296
lfingers 7.12502
lthumb 3.53357 74.28
rfemur -9.82528 -1.52162 35.5276
rtibia 18.75
rfoot -12.3551 -4.33755
rtoes 20.1986
lfemur -33.9815 -0.488516 -7.74512
ltibia 31.4374
lfoot -5.37847 0.306814
ltoes -12.6518
428
root -2.50056 17.9472 4.12465 85.9108 -81.0036 -76.931
lowerback -1.66147 1.58855 6.53492
upperback -1.88176 1.97421 3.73729
thorax -0.917278 0.887469 0.20899
lowerneck -16.5646 -4.16645 -7.19885
upperneck 10.0123 -5.36589 9.53056
head 6.20733 -2.1548 3.677
rclavicle -3.15571e-015 2.5842e-014
rhumerus -26.703 22.942 -102.664
rradius 43.8503
rwrist -46.8021
rhand 3.31208 -47.4006
rfingers 7.12502
rthumb 28.7587 -75.2056
lclavicle -3.15571e-015 2.5842e-014
lhumerus -26.3311 -38.6908 115.812
lradius 42.5355
lwrist 3.26249
lhand -22.9024 44.4557
lfingers 7.12502
lthumb 3.53739 74.4061
rfemur -9.56621 -1.41503 35.5061
rtibia 18.8608
rfoot -12.6115 -4.09883
rtoes 19.8039
lfemur -34.0712 -0.518865 -7.70497
ltibia 29.9983
lfoot -5.21625 0.723472
ltoes -12.6377
429
root -2.61561 17.9367 4.13144 89.1181 -81.0872 -80.0195
lowerback -1.70055 1.58467 6.52481
upperback -1.88698 1.96485 3.73524
thorax -0.901343 0.88285 0.21335
lowerneck -16.5994 -4.14017 -7.2154
upperneck 9.9682 -5.31717 9.50591
head 6.19445 -2.13337 3.67657
rclavicle 6.13748e-015 7.15625e-015
rhumerus -26.3914 23.1224 -102.454
rradius 43.6753
rwrist -46.6351
rhand 3.42435 -47.2256
rfingers 7.12502
rthumb 28.866 -75.0123
lclavicle 6.13748e-015 7.15625e-015
lhumerus -26.057 -39.2195 115.789
lradius 42.3863
lwrist 3.38658
lhand -22.906 44.5703
lfingers 7.12502
lthumb 3.53383 74.5208
rfemur -9.30688 -1.3112 35.4709
rtibia 18.9957
rfoot -12.8649 -3.86278
rtoes 19.3878
lfemur -34.1337 -0.579734 -7.65113
ltibia 28.6076
lfoot -5.0283 1.15125
ltoes -12.6073
430
root -2.73168 17.9261 4.13852 92.3083 -81.1462 -83.1018
lowerback -1.74262 1.58199 6.51057
upperback -1.8939 1.957 3.73248
thorax -0.885514 0.879013 0.219347
lowerneck -16.6307 -4.11619 -7.23163
upperneck 9.92503 -5.27199 9.4815
head 6.18159 -2.1137 3.67581
rclavicle -4.72114e-016 2.14687e-014
rhumerus -26.0246 23.3318 -102.231
rradius 43.5508
rwrist -46.4876
rhand 3.51864 -47.0647
rfingers 7.12502
rthumb 28.956 -74.836
lclavicle -4.72114e-016 2.14687e-014
lhumerus -25.7147 -39.7556 115.698
lradius 42.2689
lwrist 3.48349
lhand -22.9245 44.6725
lfingers 7.12502
lthumb 3.51602 74.6232
rfemur -9.04724 -1.2111 35.4235
rtibia 19.1568
rfoot -13.1123 -3.62974
rtoes 18.9441
lfemur -34.1696 -0.669499 -7.58343
ltibia 27.2728
lfoot -4.81823 1.58323
ltoes -12.5421
431
root -2.84885 17.9154 4.14591 95.4522 -81.1828 -86.1488
lowerback -1.78802 1.58014 6.49138
upperback -1.90242 1.95014 3.72877
thorax -0.86955 0.875729 0.227171
lowerneck -16.6578 -4.09476 -7.24655
upperneck 9.88131 -5.23065 9.45603
head 6.16812 -2.09602 3.67409
rclavicle 2.24875e-014 -1.86858e-014
rhumerus -25.6005 23.5685 -101.992
rradius 43.4763
rwrist -46.3565
rhand 3.58403 -46.9042
rfingers 7.12502
rthumb 29.0185 -74.6647
lclavicle 2.24875e-014 -1.86858e-014
lhumerus -25.2995 -40.3005 115.537
lradius 42.181
lwrist 3.55457
lhand -22.9547 44.7704
lfingers 7.12502
lthumb 3.48686 74.7216
rfemur -8.78868 -1.11719 35.3623
rtibia 19.3462
rfoot -13.3524 -3.39832
rtoes 18.4756
lfemur -34.1807 -0.787726 -7.50524
ltibia 26.001
lfoot -4.5882 2.02072
ltoes -12.4396
432
root -2.9672 17.9047 4.15359 98.5259 -81.1982 -89.1385
lowerback -1.83644 1.5787 6.4681
upperback -1.91213 1.94375 3.72416
thorax -0.853185 0.872729 0.236389
lowerneck -16.6798 -4.07541 -7.26112
upperneck 9.83739 -5.19268 9.43136
head 6.15408 -2.08003 3.67224
rclavicle 1.84124e-014 -1.47101e-014
rhumerus -25.1204 23.8272 -101.737
rradius 43.4557
rwrist -46.2338
rhand 3.63078 -46.7523
rfingers 7.12502
rthumb 29.0631 -74.5052
lclavicle 1.84124e-014 -1.47101e-014
lhumerus -24.8089 -40.8517 115.301
lradius 42.1245
lwrist 3.60526
lhand -22.9996 44.8588
lfingers 7.12502
lthumb 3.44348 74.8107
rfemur -8.53081 -1.0314 35.2873
rtibia 19.5665
rfoot -13.5832 -3.16765
rtoes 17.9788
lfemur -34.1663 -0.931454 -7.41882
ltibia 24.7981
lfoot -4.34123 2.46417
ltoes -12.3029
433
root -3.08679 17.8942 4.16164 101.506 -81.1935 -92.0466
lowerback -1.88844 1.5773 6.44269
upperback -1.92331 1.93722 3.71887
thorax -0.836384 0.869683 0.246162
lowerneck -16.6973 -4.05836 -7.27514
upperneck 9.79361 -5.15832 9.4068
head 6.13962 -2.06586 3.66998
rclavicle -5.46658e-015 -3.18055e-015
rhumerus -24.5831 24.1117 -101.462
rradius 43.488
rwrist -46.122
rhand 3.70348 -46.6459
rfingers 7.12502
rthumb 29.1326 -74.3868
lclavicle -5.46658e-015 -3.18055e-015
lhumerus -24.2386 -41.4073 114.988
lradius 42.0971
lwrist 3.63179
lhand -23.0515 44.9456
lfingers 7.12502
lthumb 3.39335 74.8983
rfemur -8.27635 -0.955703 35.1985
rtibia 19.8205
rfoot -13.8006 -2.9355
rtoes 17.458
lfemur -34.1293 -1.09841 -7.32657
ltibia 23.6706
lfoot -4.08248 2.91188
ltoes -12.1343
434
root -3.20768 17.8837 4.17003 104.372 -81.1709 -94.8549
lowerback -1.94383 1.57583 6.41521
upperback -1.93535 1.93042 3.71292
thorax -0.818618 0.866543 0.256465
lowerneck -16.709 -4.04383 -7.28892
upperneck 9.74919 -5.12789 9.38315
head 6.12439 -2.05367 3.66757
rclavicle 1.57537e-014 4.53229e-014
rhumerus -23.9877 24.4204 -101.167
rradius 43.5741
rwrist -46.0227
rhand 3.69936 -46.5048
rfingers 7.12502
rthumb 29.1286 -74.2464
lclavicle 1.57537e-014 4.53229e-014
lhumerus -23.586 -41.969 114.594
lradius 42.1002
lwrist 3.64109
lhand -23.1216 45.0268
lfingers 7.12502
lthumb 3.32567 74.9806
rfemur -8.02563 -0.89024 35.0959
rtibia 20.1109
rfoot -14.0029 -2.7015
rtoes 16.9096
lfemur -34.0696 -1.2847 -7.23171
ltibia 22.6241
lfoot -3.81395 3.35653
ltoes -11.9311
435
root -3.32995 17.8736 4.17868 107.131 -81.1322 -97.5718
lowerback -2.00038 1.57474 6.3847
upperback -1.94848 1.9242 3.70659
thorax -0.801375 0.863712 0.26808
lowerneck -16.7149 -4.03095 -7.30155
upperneck 9.70451 -5.1004 9.3597
head 6.10835 -2.04299 3.66476
rclavicle -7.1811e-015 5.56597e-015
rhumerus -23.3351 24.7519 -100.849
rradius 43.7146
rwrist -45.9327
rhand 3.68049 -46.3665
rfingers 7.12502
rthumb 29.1106 -74.1112
lclavicle -7.1811e-015 5.56597e-015
lhumerus -22.8464 -42.5306 114.115
lradius 42.1311
lwrist 3.62701
lhand -23.222 45.09
lfingers 7.12502
lthumb 3.22871 75.0453
rfemur -7.7786 -0.83384 34.9795
rtibia 20.4409
rfoot -14.1866 -2.46249
rtoes 16.336
lfemur -33.9846 -1.48172 -7.13826
ltibia 21.6601
lfoot -3.53867 3.7881
ltoes -11.6866
